<svg width="328" height="241" viewBox="0 0 328 241" fill="none" xmlns="http://www.w3.org/2000/svg">
<path d="M103 131H225V181H103V131Z" fill="#FFAE2B"/>
<path d="M130.747 158.648H131.539C131.737 158.648 131.836 158.549 131.836 158.351V151.817C131.836 151.714 131.811 151.641 131.759 151.597C131.715 151.546 131.642 151.52 131.539 151.52H130.747V151.168H133.937V151.52H133.145C133.043 151.52 132.966 151.546 132.914 151.597C132.87 151.641 132.848 151.714 132.848 151.817V158.351C132.848 158.549 132.947 158.648 133.145 158.648H133.937V159H130.747V158.648ZM136.65 152.367H136.606V157.768C136.606 158.039 136.668 158.256 136.793 158.417C136.925 158.571 137.093 158.648 137.299 158.648H137.695V159H135.077V158.648H135.473C135.685 158.648 135.854 158.571 135.979 158.417C136.103 158.256 136.166 158.039 136.166 157.768V151.817C136.158 151.714 136.133 151.641 136.089 151.597C136.045 151.546 135.971 151.52 135.869 151.52H135.077V151.168H137.156L140.973 157.306V152.4C140.973 152.129 140.91 151.916 140.786 151.762C140.661 151.601 140.496 151.52 140.291 151.52H139.895V151.168H142.513V151.52H142.117C141.911 151.52 141.743 151.601 141.611 151.762C141.479 151.916 141.413 152.129 141.413 152.4V159.198H140.973L136.65 152.367ZM146.72 159.198C146.412 159.198 146.108 159.132 145.807 159C145.514 158.861 145.257 158.71 145.037 158.549C144.729 158.314 144.546 158.197 144.487 158.197C144.341 158.197 144.245 158.355 144.201 158.67L144.157 159.11H143.904L143.827 155.634H144.091C144.135 156.177 144.286 156.697 144.542 157.196C144.806 157.687 145.133 158.087 145.521 158.395C145.91 158.696 146.31 158.846 146.72 158.846C147.322 158.846 147.758 158.699 148.029 158.406C148.308 158.113 148.447 157.761 148.447 157.35C148.447 156.991 148.341 156.708 148.128 156.503C147.923 156.298 147.619 156.114 147.215 155.953L145.543 155.282C144.964 155.047 144.535 154.747 144.256 154.38C143.985 154.006 143.849 153.559 143.849 153.038C143.849 152.334 144.055 151.813 144.465 151.476C144.876 151.139 145.389 150.97 146.005 150.97C146.489 150.97 147.025 151.19 147.611 151.63C147.685 151.681 147.758 151.729 147.831 151.773C147.905 151.81 147.971 151.828 148.029 151.828C148.154 151.828 148.227 151.74 148.249 151.564L148.293 151.168H148.557L148.667 154.028H148.403C148.286 153.5 148.099 153.031 147.842 152.62C147.593 152.209 147.3 151.89 146.962 151.663C146.625 151.436 146.277 151.322 145.917 151.322C145.507 151.322 145.169 151.458 144.905 151.729C144.641 151.993 144.509 152.363 144.509 152.84C144.509 153.17 144.594 153.427 144.762 153.61C144.931 153.793 145.18 153.951 145.51 154.083L147.633 154.93C148.125 155.128 148.491 155.41 148.733 155.777C148.983 156.144 149.107 156.529 149.107 156.932C149.107 157.321 149.019 157.687 148.843 158.032C148.675 158.377 148.411 158.659 148.051 158.879C147.699 159.092 147.256 159.198 146.72 159.198ZM151.859 158.648H152.915C153.113 158.648 153.212 158.549 153.212 158.351V151.784C153.212 151.681 153.19 151.608 153.146 151.564C153.102 151.513 153.025 151.487 152.915 151.487H152.519C152.057 151.487 151.657 151.722 151.32 152.191C151.107 152.492 150.964 152.869 150.891 153.324C150.817 153.771 150.781 154.101 150.781 154.314H150.473L150.561 151.168H156.875L156.963 154.314H156.655C156.655 154.101 156.618 153.771 156.545 153.324C156.471 152.869 156.328 152.492 156.116 152.191C155.778 151.722 155.379 151.487 154.917 151.487H154.521C154.411 151.487 154.334 151.513 154.29 151.564C154.246 151.608 154.224 151.681 154.224 151.784V158.351C154.224 158.549 154.323 158.648 154.521 158.648H155.577V159H151.859V158.648ZM157.158 158.648H157.565C157.998 158.648 158.313 158.38 158.511 157.845L160.876 151.168H161.151L163.538 158.164C163.612 158.347 163.7 158.476 163.802 158.549C163.905 158.615 164.037 158.648 164.198 158.648H164.814V159H161.404V158.648H162.13C162.24 158.648 162.332 158.622 162.405 158.571C162.479 158.512 162.515 158.446 162.515 158.373C162.515 158.278 162.501 158.197 162.471 158.131L161.954 156.668H159.38L159.116 157.405C159.014 157.698 158.962 157.911 158.962 158.043C158.962 158.204 159.003 158.347 159.083 158.472C159.164 158.589 159.303 158.648 159.501 158.648H160.172V159H157.158V158.648ZM159.501 156.316H161.833L160.689 152.961L159.501 156.316ZM168.376 159.198C167.746 159.198 167.196 159.015 166.726 158.648C166.264 158.274 165.909 157.772 165.659 157.141C165.417 156.503 165.296 155.795 165.296 155.018C165.296 154.277 165.421 153.599 165.67 152.983C165.92 152.367 166.275 151.879 166.737 151.52C167.199 151.153 167.738 150.97 168.354 150.97C168.677 150.97 168.981 151.043 169.267 151.19C169.553 151.337 169.788 151.494 169.971 151.663C170.147 151.824 170.265 151.905 170.323 151.905C170.382 151.905 170.422 151.887 170.444 151.85C170.474 151.813 170.503 151.755 170.532 151.674L170.741 151.058H171.016L171.06 154.468H170.752C170.591 153.771 170.382 153.188 170.125 152.719C169.869 152.242 169.586 151.89 169.278 151.663C168.978 151.436 168.677 151.322 168.376 151.322C167.87 151.322 167.478 151.476 167.199 151.784C166.921 152.085 166.726 152.506 166.616 153.049C166.514 153.592 166.462 154.27 166.462 155.084C166.462 155.898 166.514 156.576 166.616 157.119C166.726 157.662 166.921 158.087 167.199 158.395C167.478 158.696 167.87 158.846 168.376 158.846C168.648 158.846 168.908 158.751 169.157 158.56C169.407 158.362 169.608 158.113 169.762 157.812C169.924 157.511 170.004 157.214 170.004 156.921V155.931C170.004 155.828 169.979 155.755 169.927 155.711C169.883 155.66 169.81 155.634 169.707 155.634H168.486V155.282H172.116V155.634H171.313C171.211 155.634 171.134 155.66 171.082 155.711C171.038 155.755 171.016 155.828 171.016 155.931V159.143H170.664V158.142C170.664 158.017 170.65 157.926 170.62 157.867C170.591 157.801 170.543 157.768 170.477 157.768C170.397 157.768 170.327 157.797 170.268 157.856C170.21 157.915 170.151 157.995 170.092 158.098C169.924 158.369 169.685 158.622 169.377 158.857C169.069 159.084 168.736 159.198 168.376 159.198ZM178.823 159.132C178.581 159.132 178.376 159.092 178.207 159.011C178.046 158.93 177.918 158.798 177.822 158.615C177.624 158.234 177.518 157.585 177.503 156.668C177.496 156.177 177.408 155.77 177.239 155.447C177.071 155.117 176.799 154.952 176.425 154.952H175.226V158.351C175.226 158.454 175.248 158.531 175.292 158.582C175.336 158.626 175.413 158.648 175.523 158.648H176.502V159H173.125V158.648H173.917C174.115 158.648 174.214 158.549 174.214 158.351V151.817C174.214 151.714 174.189 151.641 174.137 151.597C174.093 151.546 174.02 151.52 173.917 151.52H173.125V151.168H176.733C177.445 151.168 178.028 151.304 178.482 151.575C178.937 151.846 179.164 152.297 179.164 152.928C179.164 153.471 178.959 153.907 178.548 154.237C178.145 154.567 177.657 154.761 177.085 154.82V154.864C177.503 154.945 177.844 155.139 178.108 155.447C178.38 155.748 178.559 156.265 178.647 156.998C178.699 157.416 178.743 157.72 178.779 157.911C178.823 158.102 178.875 158.237 178.933 158.318C178.999 158.391 179.095 158.428 179.219 158.428C179.535 158.428 179.692 158.032 179.692 157.24H179.967C179.967 157.717 179.898 158.153 179.758 158.549C179.619 158.938 179.307 159.132 178.823 159.132ZM176.293 154.6C176.909 154.6 177.346 154.453 177.602 154.16C177.866 153.859 177.998 153.449 177.998 152.928C177.998 152.481 177.877 152.136 177.635 151.894C177.401 151.645 177.078 151.52 176.667 151.52H175.523C175.421 151.52 175.344 151.546 175.292 151.597C175.248 151.641 175.226 151.714 175.226 151.817V154.6H176.293ZM180.823 158.648H181.23C181.663 158.648 181.978 158.38 182.176 157.845L184.541 151.168H184.816L187.203 158.164C187.277 158.347 187.365 158.476 187.467 158.549C187.57 158.615 187.702 158.648 187.863 158.648H188.479V159H185.069V158.648H185.795C185.905 158.648 185.997 158.622 186.07 158.571C186.144 158.512 186.18 158.446 186.18 158.373C186.18 158.278 186.166 158.197 186.136 158.131L185.619 156.668H183.045L182.781 157.405C182.679 157.698 182.627 157.911 182.627 158.043C182.627 158.204 182.668 158.347 182.748 158.472C182.829 158.589 182.968 158.648 183.166 158.648H183.837V159H180.823V158.648ZM183.166 156.316H185.498L184.354 152.961L183.166 156.316ZM190.995 152.158H190.929V157.768C190.929 158.039 190.991 158.256 191.116 158.417C191.248 158.571 191.416 158.648 191.622 158.648H192.018V159H189.4V158.648H189.796C190.001 158.648 190.166 158.571 190.291 158.417C190.423 158.256 190.489 158.039 190.489 157.768V151.817C190.489 151.714 190.463 151.641 190.412 151.597C190.368 151.546 190.294 151.52 190.192 151.52H189.4V151.168H191.732L193.525 157.229L195.197 151.168H197.474V151.52H196.682C196.579 151.52 196.502 151.546 196.451 151.597C196.407 151.641 196.385 151.714 196.385 151.817V158.351C196.385 158.549 196.484 158.648 196.682 158.648H197.474V159H194.284V158.648H195.076C195.274 158.648 195.373 158.549 195.373 158.351V151.861L193.36 159.132H193.096L190.995 152.158Z" fill="#181511"/>
<g clip-path="url(#clip0_1_181)">
<path d="M164 21C136.833 21 133.442 21.125 122.775 21.6C112.125 22.1 104.875 23.775 98.5 26.25C91.925 28.8 86.3417 32.225 80.7833 37.7833C75.225 43.3417 71.7917 48.9167 69.25 55.5C66.775 61.875 65.0917 69.125 64.6 79.775C64.1 90.4417 64 93.8333 64 121C64 148.167 64.125 151.558 64.6 162.225C65.1 172.867 66.775 180.125 69.25 186.5C71.8 193.067 75.225 198.658 80.7833 204.217C86.3417 209.767 91.9167 213.208 98.5 215.75C104.883 218.217 112.133 219.908 122.775 220.4C133.442 220.9 136.833 221 164 221C191.167 221 194.558 220.875 205.225 220.4C215.867 219.9 223.125 218.217 229.5 215.75C236.067 213.2 241.658 209.767 247.217 204.217C252.767 198.658 256.208 193.092 258.75 186.5C261.217 180.125 262.908 172.867 263.4 162.225C263.9 151.558 264 148.167 264 121C264 93.8333 263.875 90.4417 263.4 79.775C262.9 69.1333 261.217 61.8667 258.75 55.5C256.2 48.925 252.767 43.3417 247.217 37.7833C241.658 32.225 236.092 28.7917 229.5 26.25C223.125 23.775 215.867 22.0917 205.225 21.6C194.558 21.1 191.167 21 164 21ZM164 39C190.692 39 193.875 39.1333 204.417 39.5917C214.167 40.05 219.458 41.6667 222.975 43.05C227.658 44.8583 230.975 47.025 234.492 50.5167C237.983 54.0167 240.15 57.3417 241.958 62.025C243.325 65.5417 244.958 70.8333 245.4 80.5833C245.875 91.1333 245.983 94.3 245.983 121C245.983 147.7 245.858 150.875 245.367 161.417C244.858 171.167 243.233 176.458 241.858 179.975C239.992 184.658 237.867 187.975 234.367 191.492C230.875 194.983 227.5 197.15 222.867 198.958C219.367 200.325 213.992 201.958 204.242 202.4C193.625 202.875 190.5 202.983 163.75 202.983C136.992 202.983 133.867 202.858 123.258 202.367C113.5 201.858 108.125 200.233 104.625 198.858C99.8833 196.992 96.625 194.867 93.1333 191.367C89.625 187.875 87.3833 184.5 85.6333 179.867C84.2583 176.367 82.6417 170.992 82.1333 161.242C81.7583 150.742 81.625 147.5 81.625 120.875C81.625 94.2417 81.7583 90.9917 82.1333 80.3667C82.6417 70.6167 84.2583 65.25 85.6333 61.75C87.3833 57 89.625 53.75 93.1333 50.2417C96.625 46.75 99.8833 44.5 104.625 42.7583C108.125 41.375 113.383 39.75 123.133 39.25C133.758 38.875 136.883 38.75 163.625 38.75L164 39ZM164 69.65C135.625 69.65 112.65 92.65 112.65 121C112.65 149.375 135.65 172.35 164 172.35C192.375 172.35 215.35 149.35 215.35 121C215.35 92.625 192.35 69.65 164 69.65ZM164 154.333C145.583 154.333 130.667 139.417 130.667 121C130.667 102.583 145.583 87.6667 164 87.6667C182.417 87.6667 197.333 102.583 197.333 121C197.333 139.417 182.417 154.333 164 154.333ZM229.383 67.625C229.383 74.25 224 79.625 217.383 79.625C210.758 79.625 205.383 74.2417 205.383 67.625C205.383 61.0083 210.767 55.6333 217.383 55.6333C223.992 55.625 229.383 61.0083 229.383 67.625Z" fill="white"/>
</g>
<path d="M51.48 74.72H54.36C55.08 74.72 55.44 74.36 55.44 73.64V49.88C55.44 49.5067 55.3467 49.24 55.16 49.08C55 48.8933 54.7333 48.8 54.36 48.8H51.48V47.52H73.8L73.96 57.52H72.96C72.96 56.9867 72.84 56.08 72.6 54.8C72.3867 53.52 71.9467 52.3733 71.28 51.36C70.16 49.6533 68.5867 48.8 66.56 48.8H60.2C59.8267 48.8 59.5467 48.8933 59.36 49.08C59.2 49.24 59.12 49.5067 59.12 49.88V60.64H62.2C63.56 60.64 64.5333 59.92 65.12 58.48C65.7333 57.0133 66.04 55.48 66.04 53.88H67.08V68.68H66.04C66.04 67.08 65.7333 65.56 65.12 64.12C64.5333 62.6533 63.56 61.92 62.2 61.92H59.12V73.4C59.12 73.8 59.2 74.12 59.36 74.36C59.5467 74.6 59.8267 74.72 60.2 74.72H63.72V76H51.48V74.72ZM83.0606 76.48C81.594 76.48 80.2473 76.0533 79.0206 75.2C77.794 74.32 76.8206 73.1467 76.1006 71.68C75.4073 70.2133 75.0606 68.6133 75.0606 66.88C75.0606 65.1467 75.4073 63.5467 76.1006 62.08C76.8206 60.6133 77.794 59.4533 79.0206 58.6C80.2473 57.72 81.594 57.28 83.0606 57.28C84.5273 57.28 85.874 57.72 87.1006 58.6C88.3273 59.4533 89.2873 60.6133 89.9806 62.08C90.7006 63.5467 91.0606 65.1467 91.0606 66.88C91.0606 68.6133 90.7006 70.2133 89.9806 71.68C89.2873 73.1467 88.3273 74.32 87.1006 75.2C85.874 76.0533 84.5273 76.48 83.0606 76.48ZM83.0606 75.52C84.6606 75.52 85.8073 74.7733 86.5006 73.28C87.194 71.76 87.5406 69.6267 87.5406 66.88C87.5406 64.1333 87.194 62.0133 86.5006 60.52C85.8073 59 84.6606 58.24 83.0606 58.24C81.4606 58.24 80.314 59 79.6206 60.52C78.9273 62.0133 78.5806 64.1333 78.5806 66.88C78.5806 69.6267 78.9273 71.76 79.6206 73.28C80.314 74.7733 81.4606 75.52 83.0606 75.52ZM94.1044 75.04H96.1844C96.5044 75.04 96.731 74.9733 96.8644 74.84C96.9977 74.7067 97.0644 74.48 97.0644 74.16V49.36C97.0644 49.04 96.9977 48.8133 96.8644 48.68C96.731 48.5467 96.5044 48.48 96.1844 48.48H94.1044V47.52H99.9444V74.16C99.9444 74.48 100.011 74.7067 100.144 74.84C100.278 74.9733 100.504 75.04 100.824 75.04H102.904V76H94.1044V75.04ZM104.886 75.04H106.966C107.286 75.04 107.512 74.9733 107.646 74.84C107.779 74.7067 107.846 74.48 107.846 74.16V49.36C107.846 49.04 107.779 48.8133 107.646 48.68C107.512 48.5467 107.286 48.48 106.966 48.48H104.886V47.52H110.726V74.16C110.726 74.48 110.792 74.7067 110.926 74.84C111.059 74.9733 111.286 75.04 111.606 75.04H113.686V76H104.886V75.04ZM124.467 76.48C123 76.48 121.654 76.0533 120.427 75.2C119.2 74.32 118.227 73.1467 117.507 71.68C116.814 70.2133 116.467 68.6133 116.467 66.88C116.467 65.1467 116.814 63.5467 117.507 62.08C118.227 60.6133 119.2 59.4533 120.427 58.6C121.654 57.72 123 57.28 124.467 57.28C125.934 57.28 127.28 57.72 128.507 58.6C129.734 59.4533 130.694 60.6133 131.387 62.08C132.107 63.5467 132.467 65.1467 132.467 66.88C132.467 68.6133 132.107 70.2133 131.387 71.68C130.694 73.1467 129.734 74.32 128.507 75.2C127.28 76.0533 125.934 76.48 124.467 76.48ZM124.467 75.52C126.067 75.52 127.214 74.7733 127.907 73.28C128.6 71.76 128.947 69.6267 128.947 66.88C128.947 64.1333 128.6 62.0133 127.907 60.52C127.214 59 126.067 58.24 124.467 58.24C122.867 58.24 121.72 59 121.027 60.52C120.334 62.0133 119.987 64.1333 119.987 66.88C119.987 69.6267 120.334 71.76 121.027 73.28C121.72 74.7733 122.867 75.52 124.467 75.52ZM137.886 61.08C137.512 60.2 137.166 59.5867 136.846 59.24C136.552 58.8933 136.072 58.72 135.406 58.72H134.486V57.76H143.126V58.72H141.886C141.512 58.72 141.219 58.8267 141.006 59.04C140.819 59.2533 140.726 59.52 140.726 59.84C140.726 60.1867 140.806 60.5733 140.966 61L145.446 71.8L148.166 63.12C148.246 62.88 148.312 62.6267 148.366 62.36C148.419 62.0933 148.446 61.8667 148.446 61.68C148.446 61.2 148.272 60.5867 147.926 59.84C147.766 59.4667 147.579 59.1867 147.366 59C147.179 58.8133 146.912 58.72 146.566 58.72H145.366V57.76H154.006V58.72H152.406C151.632 58.72 151.246 59.12 151.246 59.92C151.246 60.2133 151.352 60.64 151.566 61.2L155.286 71.8L158.526 62.32C158.632 62 158.726 61.64 158.806 61.24C158.912 60.84 158.966 60.52 158.966 60.28C158.966 59.24 158.486 58.72 157.526 58.72H156.566V57.76H163.846V58.72H162.926C162.339 58.72 161.792 58.92 161.286 59.32C160.806 59.6933 160.432 60.28 160.166 61.08L154.726 76.48H154.006L149.206 63.36L145.046 76.48H144.326L137.886 61.08ZM177.551 75.04H179.231C179.551 75.04 179.778 74.9733 179.911 74.84C180.045 74.7067 180.111 74.48 180.111 74.16V59.6C180.111 59.28 180.045 59.0533 179.911 58.92C179.778 58.7867 179.551 58.72 179.231 58.72H177.551V57.76H182.991V60.96L183.151 61C183.711 59.7733 184.431 58.8533 185.311 58.24C186.218 57.6 187.178 57.28 188.191 57.28C189.765 57.28 190.925 57.7067 191.671 58.56C192.445 59.4133 192.965 60.4267 193.231 61.6H193.391C193.711 60.5333 194.338 59.5467 195.271 58.64C196.231 57.7333 197.338 57.28 198.591 57.28C200.538 57.28 201.911 57.9333 202.711 59.24C203.538 60.5467 203.951 62.08 203.951 63.84V74.16C203.951 74.48 204.018 74.7067 204.151 74.84C204.285 74.9733 204.511 75.04 204.831 75.04H206.511V76H198.511V75.04H200.191C200.511 75.04 200.738 74.9733 200.871 74.84C201.005 74.7067 201.071 74.48 201.071 74.16V62.44C201.071 61.3733 200.818 60.44 200.311 59.64C199.805 58.8133 199.071 58.4 198.111 58.4C197.311 58.4 196.551 58.72 195.831 59.36C195.138 59.9733 194.565 60.8267 194.111 61.92C193.685 63.0133 193.471 64.24 193.471 65.6V74.16C193.471 74.48 193.538 74.7067 193.671 74.84C193.805 74.9733 194.031 75.04 194.351 75.04H196.031V76H188.031V75.04H189.711C190.031 75.04 190.258 74.9733 190.391 74.84C190.525 74.7067 190.591 74.48 190.591 74.16V62.44C190.591 61.3733 190.338 60.44 189.831 59.64C189.325 58.8133 188.591 58.4 187.631 58.4C186.831 58.4 186.071 58.72 185.351 59.36C184.658 59.9733 184.085 60.8267 183.631 61.92C183.205 63.0133 182.991 64.24 182.991 65.6V74.16C182.991 74.48 183.058 74.7067 183.191 74.84C183.325 74.9733 183.551 75.04 183.871 75.04H185.551V76H177.551V75.04ZM217.949 76.48C215.469 76.48 213.469 75.64 211.949 73.96C210.456 72.28 209.709 69.9467 209.709 66.96C209.709 65.2533 210.042 63.6667 210.709 62.2C211.376 60.7067 212.296 59.52 213.469 58.64C214.669 57.7333 216.002 57.28 217.469 57.28C219.096 57.28 220.429 57.72 221.469 58.6C222.509 59.48 223.256 60.6 223.709 61.96C224.189 63.2933 224.429 64.6667 224.429 66.08C224.429 66.3733 224.336 66.5733 224.149 66.68C223.962 66.76 223.642 66.8 223.189 66.8H213.229C213.229 69.4667 213.602 71.5867 214.349 73.16C215.122 74.7333 216.376 75.52 218.109 75.52C219.336 75.52 220.482 75.0533 221.549 74.12C222.642 73.1867 223.336 71.7333 223.629 69.76H224.589C224.429 71.7067 223.749 73.32 222.549 74.6C221.376 75.8533 219.842 76.48 217.949 76.48ZM220.989 65.84C220.989 63.7067 220.709 61.9067 220.149 60.44C219.589 58.9733 218.669 58.24 217.389 58.24C216.029 58.24 214.989 58.9867 214.269 60.48C213.576 61.9467 213.229 63.7333 213.229 65.84H220.989ZM247.318 76.48C245.852 76.48 244.505 76.0533 243.278 75.2C242.052 74.32 241.078 73.1467 240.358 71.68C239.665 70.2133 239.318 68.6133 239.318 66.88C239.318 65.1467 239.665 63.5467 240.358 62.08C241.078 60.6133 242.052 59.4533 243.278 58.6C244.505 57.72 245.852 57.28 247.318 57.28C248.785 57.28 250.132 57.72 251.358 58.6C252.585 59.4533 253.545 60.6133 254.238 62.08C254.958 63.5467 255.318 65.1467 255.318 66.88C255.318 68.6133 254.958 70.2133 254.238 71.68C253.545 73.1467 252.585 74.32 251.358 75.2C250.132 76.0533 248.785 76.48 247.318 76.48ZM247.318 75.52C248.918 75.52 250.065 74.7733 250.758 73.28C251.452 71.76 251.798 69.6267 251.798 66.88C251.798 64.1333 251.452 62.0133 250.758 60.52C250.065 59 248.918 58.24 247.318 58.24C245.718 58.24 244.572 59 243.878 60.52C243.185 62.0133 242.838 64.1333 242.838 66.88C242.838 69.6267 243.185 71.76 243.878 73.28C244.572 74.7733 245.718 75.52 247.318 75.52ZM258.762 75.04H260.442C260.762 75.04 260.989 74.9733 261.122 74.84C261.256 74.7067 261.322 74.48 261.322 74.16V59.6C261.322 59.28 261.256 59.0533 261.122 58.92C260.989 58.7867 260.762 58.72 260.442 58.72H258.762V57.76H264.202V61.04L264.362 61.08C264.976 59.8 265.736 58.8533 266.642 58.24C267.549 57.6 268.549 57.28 269.642 57.28C271.589 57.28 272.962 57.88 273.762 59.08C274.589 60.28 275.002 61.72 275.002 63.4V74.16C275.002 74.48 275.069 74.7067 275.202 74.84C275.336 74.9733 275.562 75.04 275.882 75.04H277.562V76H269.562V75.04H271.242C271.562 75.04 271.789 74.9733 271.922 74.84C272.056 74.7067 272.122 74.48 272.122 74.16V62.64C272.122 61.4667 271.882 60.4667 271.402 59.64C270.949 58.8133 270.162 58.4 269.042 58.4C268.109 58.4 267.269 58.7333 266.522 59.4C265.802 60.04 265.229 60.9333 264.802 62.08C264.402 63.2 264.202 64.4533 264.202 65.84V74.16C264.202 74.48 264.269 74.7067 264.402 74.84C264.536 74.9733 264.762 75.04 265.082 75.04H266.762V76H258.762V75.04Z" fill="#FFAE2B"/>
<defs>
<clipPath id="clip0_1_181">
<rect width="200" height="200" fill="white" transform="translate(64 21)"/>
</clipPath>
</defs>
</svg>
